<?xml version="1.0" encoding="UTF-8"?>
<svg width="1024px" height="1024px" viewBox="0 0 1024 1024" version="1.1" xmlns="http://www.w3.org/2000/svg" xmlns:xlink="http://www.w3.org/1999/xlink">
    <!-- Generator: Sketch 62 (91390) - https://sketch.com -->
    <title>byot-logo copy 3</title>
    <desc>Created with Sketch.</desc>
    <g id="byot-logo-copy-3" stroke="none" stroke-width="1" fill="none" fill-rule="evenodd">
        <rect fill="#EAECE7" x="0" y="0" width="1024" height="1024"></rect>
        <rect id="Rectangle" fill="#CED1D5" x="0" y="0" width="1024" height="1024"></rect>
        <g id="Group" transform="translate(516.118055, 589.534055) rotate(-315.000000) translate(-516.118055, -589.534055) translate(456.618055, 405.034055)" fill="#223030" opacity="0.9">
            <path d="M5,227 C67.9604615,227 119,176.184319 119,113.5 C119,50.8156809 67.9604615,0 5,0 M5,141.875 C20.7401154,141.875 33.5,129.17108 33.5,113.5 C33.5,97.8289202 20.7401154,85.125 5,85.125" id="Combined-Shape"></path>
            <path d="M4.94249201,142 C67.9347143,142 119,192.815681 119,255.5 C119,318.184319 67.9347143,369 4.94249201,369 L4.94249201,369 L4.94249201,283.875 C20.6905476,283.875 33.456869,271.17108 33.456869,255.5 C33.456869,239.82892 20.6905476,227.125 4.94249201,227.125 Z M4.94249201,108 C7.67215498,108 9.88498403,110.202013 9.88498403,112.918333 C9.88498403,115.634654 7.67215498,117.836667 4.94249201,117.836667 C2.21282905,117.836667 7.27418126e-13,115.634654 7.27418126e-13,112.918333 C7.27418126e-13,110.202013 2.21282905,108 4.94249201,108 Z" id="Combined-Shape-Copy"></path>
        </g>
        <path d="M198.507249,627.379225 C202.981676,627.379225 206.484514,623.774115 206.484514,617.228666 C206.484514,610.619298 202.853835,607.142028 198.48168,607.142028 C196.027137,607.142028 194.365207,608.241459 193.700435,609.571003 L193.49589,609.571003 L193.49589,600.852261 L188.612372,600.852261 L188.612372,627.034055 L193.457537,627.034055 L193.457537,624.963034 L193.700435,624.963034 C194.365207,626.305362 196.06549,627.379225 198.507249,627.379225 Z M197.318329,623.403376 C194.237366,623.403376 192.946174,620.705936 192.946174,617.228666 C192.946174,613.751397 194.25015,611.117877 197.318329,611.117877 C200.309804,611.117877 201.843893,613.534067 201.843893,617.215882 C201.843893,620.910481 200.29702,623.403376 197.318329,623.403376 Z M214.640776,627.034055 L214.640776,615.720145 C214.65356,613.661908 216.328274,611.808217 218.910658,611.808217 C219.370885,611.808217 219.920601,611.821001 220.227418,611.872137 L220.227418,607.231517 C219.920601,607.142028 219.460374,607.129244 219.10242,607.129244 C217.235944,607.129244 215.369469,608.215891 214.806969,610.210207 L214.640776,610.210207 L214.640776,607.39771 L209.757258,607.39771 L209.757258,627.034055 L214.640776,627.034055 Z M225.558392,605.710211 C227.156402,605.710211 228.332537,604.534076 228.332537,603.102259 C228.332537,601.721579 227.156402,600.494307 225.558392,600.494307 C223.960382,600.494307 222.745895,601.721579 222.745895,603.102259 C222.745895,604.534076 223.960382,605.710211 225.558392,605.710211 Z M227.987367,627.034055 L227.987367,607.39771 L223.103849,607.39771 L223.103849,627.034055 L227.987367,627.034055 Z M236.987367,627.034055 L236.987367,616.193156 C236.987367,613.112193 238.431968,611.181797 240.643614,611.181797 C242.561225,611.181797 243.980258,612.524125 243.980258,614.88918 L243.980258,627.034055 L248.863776,627.034055 L248.863776,614.684635 C248.863776,609.251401 245.795597,607.142028 242.35668,607.142028 C239.851001,607.142028 237.946173,608.292595 236.885094,609.928957 L236.680549,609.928957 L236.680549,607.39771 L232.103849,607.39771 L232.103849,627.034055 L236.987367,627.034055 Z M260.81691,634.499957 C266.173438,634.499957 270.008662,631.674675 270.008662,626.61218 L270.008662,607.46163 L265.163496,607.46163 L265.163496,609.519867 L264.920599,609.519867 C264.255827,608.215891 262.581112,607.129244 260.126569,607.129244 C255.767198,607.129244 252.13652,610.542593 252.13652,617.062473 C252.13652,623.480081 255.626574,627.034055 260.113785,627.034055 C262.555544,627.034055 264.255827,625.972976 264.920599,624.656216 L265.227417,624.656216 L265.227417,626.177521 C265.201849,629.2457 263.424862,630.460188 260.676285,630.460188 C258.208957,630.460188 256.674868,629.335189 255.626574,628.453087 L253.248735,631.661891 C254.373734,632.978651 257.083959,634.499957 260.81691,634.499957 Z M261.28992,623.122127 C258.324014,623.122127 256.777141,620.667583 256.777141,617.036905 C256.777141,613.419011 258.31123,611.041172 261.28992,611.041172 C264.358099,611.041172 265.662075,613.63634 265.662075,617.062473 C265.662075,620.463038 264.383667,623.122127 261.28992,623.122127 Z M286.602426,634.704502 C290.360945,634.704502 292.521454,632.198822 293.288499,629.884904 L300.600992,607.39771 L295.500145,607.39771 L291.690489,619.606505 L287.65072,607.39771 L282.549873,607.39771 L289.504412,626.624964 L289.120889,627.839452 C288.443333,629.8082 287.331118,630.536892 285.260098,630.536892 C284.787087,630.536892 284.595325,630.524108 284.237371,630.472972 L284.237371,634.3849 C284.991632,634.615013 285.733108,634.704502 286.602426,634.704502 Z M311.454693,627.404793 C316.440484,627.404793 320.31406,623.671842 320.31406,617.254234 C320.31406,610.72157 316.312643,607.142028 311.454693,607.142028 C306.596744,607.142028 302.595327,610.72157 302.595327,617.254234 C302.595327,623.671842 306.430551,627.404793 311.454693,627.404793 Z M311.454693,623.403376 C308.744469,623.403376 307.2743,621.12781 307.2743,617.254234 C307.2743,613.342306 308.782821,611.117877 311.454693,611.117877 C314.126566,611.117877 315.635087,613.342306 315.635087,617.254234 C315.635087,621.12781 314.164918,623.403376 311.454693,623.403376 Z M330.0939,627.289736 C332.599579,627.289736 334.491623,626.151953 335.552701,624.707352 L335.757246,624.707352 L335.757246,627.034055 L340.346731,627.034055 L340.346731,607.39771 L335.463213,607.39771 L335.463213,618.328097 C335.463213,621.40906 334.018612,623.249967 331.794182,623.249967 C329.889354,623.249967 328.470322,621.971559 328.470322,619.606505 L328.470322,607.39771 L323.586803,607.39771 L323.586803,619.74713 C323.586803,625.244284 326.936232,627.289736 330.0939,627.289736 Z M349.218901,627.034055 L349.218901,615.720145 C349.231685,613.661908 350.906399,611.808217 353.488783,611.808217 C353.94901,611.808217 354.498726,611.821001 354.805543,611.872137 L354.805543,607.231517 C354.498726,607.142028 354.038499,607.129244 353.680545,607.129244 C351.814069,607.129244 349.947594,608.215891 349.385094,610.210207 L349.218901,610.210207 L349.218901,607.39771 L344.335383,607.39771 L344.335383,627.034055 L349.218901,627.034055 Z M375.515773,627.404793 C380.501564,627.404793 384.37514,623.671842 384.37514,617.254234 C384.37514,610.72157 380.373723,607.142028 375.515773,607.142028 C370.657823,607.142028 366.656406,610.72157 366.656406,617.254234 C366.656406,623.671842 370.49163,627.404793 375.515773,627.404793 Z M375.515773,623.403376 C372.805548,623.403376 371.335379,621.12781 371.335379,617.254234 C371.335379,613.342306 372.843901,611.117877 375.515773,611.117877 C378.187645,611.117877 379.696167,613.342306 379.696167,617.254234 C379.696167,621.12781 378.225998,623.403376 375.515773,623.403376 Z M396.059807,627.034055 L399.588213,614.67185 L399.89503,614.67185 L403.461788,627.034055 L407.591046,627.034055 L412.80695,607.39771 L408.038489,607.39771 L405.264343,620.220141 L405.021446,620.220141 L401.608097,607.39771 L397.88793,607.39771 L394.461797,620.309629 L394.231684,620.309629 L391.483107,607.39771 L386.714645,607.39771 L391.930549,627.034055 L396.059807,627.034055 Z M420.74589,627.034055 L420.74589,616.193156 C420.74589,613.112193 422.190491,611.181797 424.402136,611.181797 C426.319748,611.181797 427.738781,612.524125 427.738781,614.88918 L427.738781,627.034055 L432.622299,627.034055 L432.622299,614.684635 C432.622299,609.251401 429.55412,607.142028 426.115203,607.142028 C423.609523,607.142028 421.704696,608.292595 420.643617,609.928957 L420.439072,609.928957 L420.439072,607.39771 L415.862372,607.39771 L415.862372,627.034055 L420.74589,627.034055 Z M453.306967,627.315304 C454.329694,627.315304 454.904977,627.30252 456.106681,627.085191 L456.106681,623.186047 C455.735942,623.211615 455.314068,623.224399 454.738784,623.224399 C453.869467,623.224399 452.463218,623.00707 452.463218,621.038322 L452.463218,611.041172 L455.927704,611.041172 L455.927704,607.39771 L452.463218,607.39771 L452.463218,603.204532 L447.5797,603.204532 L447.5797,607.39771 L445.112373,607.39771 L445.112373,611.041172 L447.5797,611.041172 L447.5797,621.792582 C447.5797,625.257068 450.520038,627.315304 453.306967,627.315304 Z M464.160662,627.034055 L464.160662,615.720145 C464.173447,613.661908 465.848161,611.808217 468.430545,611.808217 C468.890772,611.808217 469.440487,611.821001 469.747305,611.872137 L469.747305,607.231517 C469.440487,607.142028 468.98026,607.129244 468.622306,607.129244 C466.75583,607.129244 464.889355,608.215891 464.326855,610.210207 L464.160662,610.210207 L464.160662,607.39771 L459.277144,607.39771 L459.277144,627.034055 L464.160662,627.034055 Z M478.376571,627.430361 C481.201852,627.430361 482.76151,626.113601 483.375145,625.001386 L483.528554,625.001386 L483.528554,627.034055 L488.233095,627.034055 L488.233095,613.866454 C488.233095,608.816742 484.385088,607.142028 480.549864,607.142028 C476.420607,607.142028 473.173451,609.05964 472.240213,612.677534 L476.765777,613.559636 C477.226004,612.166171 478.414923,611.092308 480.332535,611.092308 C482.020033,611.092308 483.324009,611.948842 483.324009,613.764181 L483.324009,614.045431 C483.324009,615.093725 481.50867,615.157645 479.731683,615.349407 C474.809813,615.809633 471.843906,617.676109 471.843906,621.498549 C471.843906,625.29542 474.745892,627.430361 478.376571,627.430361 Z M479.399297,623.722978 C477.724583,623.722978 476.5868,622.879229 476.5868,621.447412 C476.5868,619.708778 477.814071,618.928949 480.166342,618.660483 C481.0868,618.532642 482.953271,618.276961 483.324009,617.86787 L483.324009,620.463038 C483.324009,622.214457 481.649295,623.722978 479.399297,623.722978 Z M500.63367,627.404793 C505.044178,627.404793 508.201845,624.911898 508.75156,621.076674 L504.277133,620.475822 C503.906395,621.920423 502.819748,623.403376 500.56975,623.403376 C497.578276,623.403376 496.184811,620.872129 496.184811,617.254234 C496.184811,613.725829 497.603844,611.117877 500.531398,611.117877 C503.126566,611.117877 504.047019,613.252818 504.302701,614.339464 L508.75156,613.713045 C508.201845,609.928957 505.248723,607.142028 500.582534,607.142028 C494.893619,607.142028 491.505838,611.399126 491.505838,617.254234 C491.505838,623.186047 494.855267,627.404793 500.63367,627.404793 Z M516.754412,627.034055 L516.754412,620.820992 L518.493047,618.865028 L524.07969,627.034055 L529.436219,627.034055 L521.676283,615.771281 L528.950424,607.39771 L523.223156,607.39771 L517.035662,614.710203 L516.754412,614.710203 L516.754412,600.852261 L511.870894,600.852261 L511.870894,627.034055 L516.754412,627.034055 Z" id="bringyourowntrack" fill="#FFFFFF" fill-rule="nonzero" transform="translate(359.024295, 617.599405) rotate(-45.000000) translate(-359.024295, -617.599405) "></path>
    </g>
</svg>